<svg width="5578" height="2770" xmlns="http://www.w3.org/2000/svg" xmlns:xlink="http://www.w3.org/1999/xlink" xml:space="preserve" overflow="hidden"><defs><filter id="fx0" x="-10%" y="-10%" width="120%" height="120%" filterUnits="userSpaceOnUse" primitiveUnits="userSpaceOnUse"><feComponentTransfer color-interpolation-filters="sRGB"><feFuncR type="discrete" tableValues="0.929412 0.929412"/><feFuncG type="discrete" tableValues="0.490196 0.490196"/><feFuncB type="discrete" tableValues="0.192157 0.192157"/><feFuncA type="linear" slope="1" intercept="0"/></feComponentTransfer><feGaussianBlur stdDeviation="0 0"/></filter><filter id="fx1" x="-10%" y="-10%" width="120%" height="120%" filterUnits="userSpaceOnUse" primitiveUnits="userSpaceOnUse"><feComponentTransfer color-interpolation-filters="sRGB"><feFuncR type="discrete" tableValues="0.219608 0.219608"/><feFuncG type="discrete" tableValues="0.341176 0.341176"/><feFuncB type="discrete" tableValues="0.137255 0.137255"/><feFuncA type="linear" slope="1" intercept="0"/></feComponentTransfer><feGaussianBlur stdDeviation="0 0"/></filter><filter id="fx2" x="-10%" y="-10%" width="120%" height="120%" filterUnits="userSpaceOnUse" primitiveUnits="userSpaceOnUse"><feComponentTransfer color-interpolation-filters="sRGB"><feFuncR type="discrete" tableValues="0.12549 0.12549"/><feFuncG type="discrete" tableValues="0.219608 0.219608"/><feFuncB type="discrete" tableValues="0.392157 0.392157"/><feFuncA type="linear" slope="1" intercept="0"/></feComponentTransfer><feGaussianBlur stdDeviation="0 0"/></filter><clipPath id="clip3"><rect x="1139" y="148" width="5578" height="2770"/></clipPath><clipPath id="clip4"><rect x="1" y="1" width="717" height="241"/></clipPath><clipPath id="clip5"><rect x="1" y="1" width="726" height="238"/></clipPath><clipPath id="clip6"><rect x="1" y="1" width="533" height="176"/></clipPath></defs><g clip-path="url(#clip3)" transform="translate(-1139 -148)"><path d="M0 177.338C0 79.3969 79.3969-4.39708e-14 177.338-4.39708e-14L886.662 0C984.603-2.19854e-14 1064 79.3969 1064 177.338L1064 2585.66C1064 2683.6 984.603 2763 886.662 2763L177.338 2763C79.3969 2763-4.39709e-14 2683.6-4.39709e-14 2585.66Z" fill="#4472C4" fill-rule="evenodd" fill-opacity="0.501961" transform="matrix(-1 0 0 1 6717 155)"/><path d="M2706 343.01C2706 235.309 2793.31 148 2901.01 148L5318.99 148C5426.69 148 5514 235.309 5514 343.01L5514 2722.99C5514 2830.69 5426.69 2918 5318.99 2918L2901.01 2918C2793.31 2918 2706 2830.69 2706 2722.99Z" fill="#70AD47" fill-rule="evenodd" fill-opacity="0.501961"/><path d="M1139 392.173C1139 261.186 1245.19 155 1376.17 155L2324.83 155C2455.81 155 2562 261.186 2562 392.173L2562 2680.83C2562 2811.81 2455.81 2918 2324.83 2918L1376.17 2918C1245.19 2918 1139 2811.81 1139 2680.83Z" fill="#FFC000" fill-rule="evenodd" fill-opacity="0.501961"/><g clip-path="url(#clip4)" filter="url(#fx0)" transform="translate(1462 242)"><g><path d="M546.991 132.895C554.903 134.025 563.5 134.792 572.784 135.196L690.366 135.196C700.457 134.792 709.055 134.025 716.159 132.895L716.159 156.024C705.503 154.813 696.905 154.046 690.366 153.723L614.198 153.723 627.64 159.415C630.627 160.787 631.959 162.402 631.636 164.259 631.071 166.115 629.052 167.326 625.581 167.891 622.433 168.214 619.89 169.788 617.952 172.614 611.655 180.606 603.784 190.213 594.339 201.434 616.539 199.9 639.547 198.488 663.362 197.196 657.792 190.415 651.656 183.391 644.956 176.126L663.362 162.684C681.123 182.059 696.905 201.152 710.71 219.962L691.335 235.341C686.814 228.398 682.172 221.536 677.409 214.755 607.336 219.114 569.918 223.998 565.155 229.407L556.436 205.067C565.801 202.242 573.147 197.357 578.476 190.415 588.002 178.548 595.873 166.317 602.089 153.723L572.784 153.723C567.456 153.885 558.858 154.652 546.991 156.024ZM134.093 96.4461 134.093 130.716 185.679 130.716 185.679 96.4461ZM59.9834 96.4461 59.9834 130.716 111.327 130.716 111.327 96.4461ZM561.886 94.0242C571.089 94.9929 579.848 95.6388 588.163 95.9617L671.718 95.9617C680.356 95.6388 689.115 94.9929 697.995 94.0242L697.995 116.79C687.016 115.579 678.257 114.852 671.718 114.61L588.163 114.61C582.431 114.852 573.672 115.579 561.886 116.79ZM315.854 69.2 315.854 118.848 428.472 118.848 428.472 69.2ZM544.811 37.4734 544.811 55.7586 673.292 55.7586 673.292 37.4734ZM134.093 36.989 134.093 77.9187 185.679 77.9187 185.679 36.989ZM59.9834 36.989 59.9834 77.9187 111.327 77.9187 111.327 36.989ZM697.511 16.6453C696.623 25.2833 696.058 33.3158 695.815 40.7429L695.815 53.3367C696.058 61.1674 696.623 68.8367 697.511 76.3445 687.904 75.295 679.75 74.6492 673.05 74.407L544.811 74.407 544.811 97.1726C544.892 100.483 544.933 104.075 544.933 107.95 544.933 162.765 534.397 204.179 513.327 232.192 506.304 226.864 497.181 223.191 485.96 221.173 511.228 202.605 523.297 162.119 522.167 99.7156L522.167 41.7117C521.925 33.881 521.36 25.6062 520.472 16.8875 530.966 17.9369 539.887 18.5828 547.233 18.825L671.718 18.825C679.791 18.5021 688.388 17.7755 697.511 16.6453ZM35.6436 16.1609C47.9144 17.6947 56.9964 18.4213 62.8896 18.3406L183.257 18.3406C189.554 18.4213 198.474 17.6947 210.019 16.1609 209.292 21.9734 208.808 26.9382 208.565 31.0554 208.404 33.0737 208.323 35.0112 208.323 36.8679 208.243 38.5632 208.202 40.6622 208.202 43.1648L208.202 205.794C208.525 216.288 205.861 223.07 200.21 226.137 194.801 229.851 182.853 232.192 164.366 233.161 163.397 225.169 160.007 216.571 154.194 207.368 159.845 208.094 164.366 208.538 167.757 208.7 169.452 208.861 170.986 208.942 172.358 208.942 173.569 209.023 175.103 209.063 176.96 209.063 183.338 209.467 186.244 207.005 185.679 201.677L185.679 149.364 134.093 149.364 134.093 189.204C134.093 196.792 134.739 205.309 136.03 214.755L109.269 214.755C110.641 204.986 111.327 196.469 111.327 189.204L111.327 149.364 59.7412 149.364C58.3688 179.395 47.6722 208.74 27.6514 237.399 21.1123 231.264 12.5954 226.46 2.1006 222.989 26.8844 202.807 38.7113 169.99 37.5811 124.54L37.5811 42.6804C37.6618 35.9799 37.016 27.1401 35.6436 16.1609ZM335.956 2.23512C349.519 9.42003 367.965 19.9955 391.296 33.9617L380.397 50.5515 417.815 50.5515C430.167 50.4708 441.913 49.7442 453.054 48.3718 451.762 58.9474 451.076 70.6935 450.995 83.6101L450.995 129.02C450.995 130.473 451.52 137.658 452.569 150.575 452.65 151.786 452.731 152.674 452.811 153.239L426.776 153.239C427.745 147.184 428.31 141.897 428.472 137.376L315.854 137.376C313.433 179.193 297.004 213.423 266.569 240.063 260.515 234.17 252.563 228.479 242.714 222.989 276.459 205.067 293.331 170.919 293.331 120.544L293.331 88.0906C293.25 74.9317 292.564 61.6922 291.272 48.3718 305.804 49.6635 317.711 50.3901 326.995 50.5515L373.858 50.5515C354.645 38.0385 338.216 28.3107 324.573 21.3679Z" stroke="#ED7D31" stroke-width="2" stroke-linejoin="round" stroke-miterlimit="10" fill="#FFFFFF" fill-rule="evenodd"/></g></g><path d="M2001.35 367.258C2009.27 368.388 2017.86 369.155 2027.15 369.559L2144.73 369.559C2154.82 369.155 2163.42 368.388 2170.52 367.258L2170.52 390.387C2159.87 389.176 2151.27 388.409 2144.73 388.086L2068.56 388.086 2082 393.778C2084.99 395.15 2086.32 396.765 2086 398.622 2085.43 400.478 2083.42 401.689 2079.94 402.254 2076.8 402.577 2074.25 404.151 2072.31 406.977 2066.02 414.969 2058.15 424.576 2048.7 435.797 2070.9 434.263 2093.91 432.851 2117.73 431.559 2112.15 424.778 2106.02 417.754 2099.32 410.489L2117.73 397.047C2135.49 416.422 2151.27 435.515 2165.07 454.325L2145.7 469.704C2141.18 462.761 2136.54 455.899 2131.77 449.118 2061.7 453.477 2024.28 458.361 2019.52 463.77L2010.8 439.43C2020.16 436.605 2027.51 431.72 2032.84 424.778 2042.36 412.911 2050.24 400.68 2056.45 388.086L2027.15 388.086C2021.82 388.248 2013.22 389.015 2001.35 390.387ZM1588.46 330.809 1588.46 365.079 1640.04 365.079 1640.04 330.809ZM1514.35 330.809 1514.35 365.079 1565.69 365.079 1565.69 330.809ZM2016.25 328.387C2025.45 329.356 2034.21 330.002 2042.53 330.325L2126.08 330.325C2134.72 330.002 2143.48 329.356 2152.36 328.387L2152.36 351.153C2141.38 349.942 2132.62 349.215 2126.08 348.973L2042.53 348.973C2036.79 349.215 2028.04 349.942 2016.25 351.153ZM1770.22 303.563 1770.22 353.211 1882.83 353.211 1882.83 303.563ZM1999.17 271.836 1999.17 290.122 2127.65 290.122 2127.65 271.836ZM1588.46 271.352 1588.46 312.282 1640.04 312.282 1640.04 271.352ZM1514.35 271.352 1514.35 312.282 1565.69 312.282 1565.69 271.352ZM2151.87 251.008C2150.99 259.646 2150.42 267.679 2150.18 275.106L2150.18 287.7C2150.42 295.53 2150.99 303.2 2151.87 310.707 2142.27 309.658 2134.11 309.012 2127.41 308.77L1999.17 308.77 1999.17 331.536C1999.26 334.845 1999.3 338.438 1999.3 342.313 1999.3 397.128 1988.76 438.542 1967.69 466.555 1960.67 461.227 1951.54 457.554 1940.32 455.536 1965.59 436.968 1977.66 396.482 1976.53 334.079L1976.53 276.075C1976.29 268.244 1975.72 259.969 1974.83 251.25 1985.33 252.3 1994.25 252.946 2001.6 253.188L2126.08 253.188C2134.15 252.865 2142.75 252.138 2151.87 251.008ZM1490.01 250.524C1502.28 252.058 1511.36 252.784 1517.25 252.704L1637.62 252.704C1643.92 252.784 1652.84 252.058 1664.38 250.524 1663.65 256.336 1663.17 261.301 1662.93 265.418 1662.77 267.437 1662.69 269.374 1662.69 271.231 1662.61 272.926 1662.57 275.025 1662.57 277.528L1662.57 440.157C1662.89 450.651 1660.22 457.433 1654.57 460.5 1649.16 464.214 1637.22 466.555 1618.73 467.524 1617.76 459.532 1614.37 450.934 1608.56 441.731 1614.21 442.457 1618.73 442.901 1622.12 443.063 1623.82 443.224 1625.35 443.305 1626.72 443.305 1627.93 443.386 1629.47 443.426 1631.32 443.426 1637.7 443.83 1640.61 441.368 1640.04 436.039L1640.04 383.727 1588.46 383.727 1588.46 423.567C1588.46 431.155 1589.1 439.672 1590.39 449.118L1563.63 449.118C1565 439.349 1565.69 430.832 1565.69 423.567L1565.69 383.727 1514.1 383.727C1512.73 413.758 1502.04 443.103 1482.01 471.762 1475.48 465.627 1466.96 460.823 1456.46 457.352 1481.25 437.17 1493.07 404.353 1491.94 358.903L1491.94 277.043C1492.02 270.343 1491.38 261.503 1490.01 250.524ZM1790.32 236.598C1803.88 243.783 1822.33 254.359 1845.66 268.325L1834.76 284.914 1872.18 284.914C1884.53 284.834 1896.28 284.107 1907.42 282.735 1906.12 293.31 1905.44 305.056 1905.36 317.973L1905.36 363.383C1905.36 364.836 1905.88 372.021 1906.93 384.938 1907.01 386.149 1907.09 387.037 1907.17 387.602L1881.14 387.602C1882.11 381.547 1882.67 376.26 1882.83 371.739L1770.22 371.739C1767.8 413.556 1751.37 447.786 1720.93 474.426 1714.88 468.533 1706.93 462.842 1697.08 457.352 1730.82 439.43 1747.69 405.282 1747.69 354.907L1747.69 322.454C1747.61 309.295 1746.93 296.055 1745.64 282.735 1760.17 284.026 1772.07 284.753 1781.36 284.914L1828.22 284.914C1809.01 272.401 1792.58 262.674 1778.94 255.731Z" stroke="#ED7D31" stroke-width="2" stroke-linejoin="round" stroke-miterlimit="10" fill="#FFFFFF" fill-rule="evenodd"/><text fill="#000000" fill-opacity="0" font-family="Arial,Arial_MSFontService,sans-serif" font-size="237.828" x="1456.46" y="444.698">用户层</text><g clip-path="url(#clip5)" filter="url(#fx1)" transform="translate(4521 416)"><g><path d="M143.157 132.67 143.157 203.873C151.956 197.495 160.554 189.22 168.95 179.049 159.424 166.616 150.826 151.157 143.157 132.67ZM556.782 132.185C564.693 133.316 573.291 134.082 582.575 134.486L700.157 134.486C710.248 134.082 718.845 133.316 725.95 132.185L725.95 155.314C715.293 154.103 706.696 153.336 700.157 153.013L623.989 153.013 637.43 158.705C640.417 160.077 641.749 161.692 641.426 163.549 640.861 165.405 638.843 166.616 635.372 167.181 632.223 167.504 629.68 169.079 627.743 171.904 621.446 179.896 613.575 189.503 604.129 200.724 626.33 199.191 649.338 197.778 673.153 196.486 667.582 189.705 661.447 182.681 654.747 175.416L673.153 161.974C690.913 181.349 706.696 200.442 720.5 219.252L701.125 234.631C696.605 227.688 691.963 220.826 687.2 214.045 617.127 218.404 579.709 223.288 574.946 228.697L566.227 204.357C575.592 201.532 582.938 196.648 588.266 189.705 597.792 177.838 605.663 165.607 611.879 153.013L582.575 153.013C577.247 153.175 568.649 153.942 556.782 155.314ZM160.231 122.498C166.124 136.948 172.905 149.461 180.575 160.037 186.387 149.381 191.11 136.868 194.743 122.498ZM571.676 93.3142C580.879 94.283 589.638 94.9288 597.954 95.2517L681.508 95.2517C690.146 94.9288 698.905 94.283 707.786 93.3142L707.786 116.08C696.806 114.869 688.047 114.142 681.508 113.9L597.954 113.9C592.222 114.142 583.463 114.869 571.676 116.08ZM50.6411 92.1033C50.6411 100.58 50.6007 107.079 50.52 111.599 50.4393 116.927 50.3182 122.417 50.1567 128.068L80.9146 128.068 80.9146 92.1033ZM51.1255 37.7322 51.1255 73.4548 80.9146 73.4548 80.9146 37.7322ZM554.602 36.7634 554.602 55.0486 683.082 55.0486 683.082 36.7634ZM26.5435 16.9041C35.7466 18.2765 43.6177 19.003 50.1567 19.0838L80.4302 19.0838C89.0682 18.8416 97.3429 18.115 105.254 16.9041 104.447 22.3937 103.922 27.7621 103.68 33.0095 103.357 38.0955 103.196 44.3923 103.196 51.9002L103.196 204.115C103.68 214.368 101.339 220.705 96.1724 223.127 91.7323 226.194 79.0981 228.536 58.27 230.15 56.7362 221.512 54.2739 212.834 50.8833 204.115 52.0942 204.196 53.7896 204.357 55.9692 204.599 65.3338 205.568 70.9041 206.012 72.6802 205.931 78.8156 206.335 81.5604 203.752 80.9146 198.181L80.9146 146.595 49.188 146.595C47.5734 175.497 40.7922 204.196 28.8442 232.693 20.8521 228.98 11.9315 225.993 2.08253 223.732 20.731 202.258 29.5708 163.427 28.6021 107.24L28.6021 50.0838C28.6021 39.3468 27.9159 28.2869 26.5435 16.9041ZM118.817 16.4197C127.051 17.7113 137.304 18.4379 149.575 18.5994L190.504 18.5994C199.142 18.4379 207.579 17.7113 215.813 16.4197 214.764 22.3129 214.118 29.9822 213.875 39.4275 213.795 40.3155 213.674 42.4952 213.512 45.9666 213.109 54.6853 212.786 60.4574 212.543 63.283 211.978 74.1814 208.265 81.6085 201.403 85.5642 194.864 89.8429 182.391 92.4262 163.985 93.3142 161.886 85.8871 158.576 77.2087 154.055 67.2791 163.743 68.9744 171.694 69.8624 177.911 69.9431 186.306 70.5082 190.666 67.1983 190.989 60.0134 191.473 54.766 191.877 47.1775 192.2 37.2478L143.157 37.2478 143.157 103.97 190.747 103.97C201.403 103.809 211.978 102.961 222.473 101.427 213.674 134.607 204.349 159.674 194.5 176.627 207.74 188.817 224.532 198.747 244.875 206.416 237.61 211.582 231.232 218.364 225.743 226.76 209.678 217.476 195.469 206.698 183.118 194.427 176.256 203.55 166.487 214.489 153.813 227.244 150.099 223.611 146.547 220.705 143.157 218.525 143.318 223.773 143.803 229.222 144.61 234.873L118.817 234.873C119.947 223.974 120.633 211.663 120.875 197.939L120.875 52.6267C120.714 41.4861 120.028 29.4171 118.817 16.4197ZM707.301 15.9353C706.413 24.5733 705.848 32.6059 705.606 40.033L705.606 52.6267C705.848 60.4574 706.413 68.1267 707.301 75.6345 697.694 74.585 689.541 73.9392 682.84 73.697L554.602 73.697 554.602 96.4627C554.683 99.7725 554.723 103.365 554.723 107.24 554.723 162.055 544.188 203.469 523.118 231.482 516.094 226.154 506.972 222.481 495.75 220.463 521.019 201.895 533.088 161.409 531.957 99.0056L531.957 41.0017C531.715 33.171 531.15 24.8963 530.262 16.1775 540.757 17.227 549.677 17.8728 557.024 18.115L681.508 18.115C689.581 17.7921 698.179 17.0655 707.301 15.9353ZM335.332 2.49391 360.399 12.6658C362.256 13.4731 363.063 14.5024 362.821 15.7537 362.579 17.005 361.368 18.0343 359.188 18.8416 357.493 19.5681 355.757 20.9809 353.981 23.0798 350.994 26.9548 348.249 30.5069 345.747 33.7361L418.403 33.7361C422.924 33.9783 432.45 33.171 446.981 31.3142 435.437 49.0746 416.425 68.7322 389.946 90.2869 414.487 104.334 448.111 112.851 490.817 115.838 481.533 122.135 474.51 130.974 469.747 142.357 431.481 134.688 398.261 121.973 370.086 104.213 364.597 107.926 357.896 111.801 349.985 115.838L377.231 120.318C379.572 120.802 380.743 121.771 380.743 123.224 380.743 124.839 379.33 127.099 376.504 130.006 375.536 130.894 374.809 132.71 374.325 135.455L372.75 145.142 415.739 145.142C425.588 145.062 435.921 144.295 446.739 142.842 444.398 151.48 442.137 165.809 439.957 185.83 438.343 204.963 433.741 217.355 426.153 223.006 419.452 229.302 404.316 233.42 380.743 235.357 376.625 225.266 372.306 216.668 367.786 209.564 368.835 209.645 371.055 209.766 374.446 209.927 382.357 210.412 387.161 210.654 388.856 210.654 402.661 210.816 410.37 207.506 411.985 200.724 414.245 194.185 416.223 181.672 417.918 163.185L369.118 163.185C362.659 198.222 334.041 223.046 283.262 237.658 280.437 229.989 274.422 222.521 265.219 215.256 308.571 209.362 335.09 192.006 344.778 163.185L320.196 163.185C310.266 163.347 299.287 164.275 287.258 165.97L287.258 142.842C299.125 144.295 310.105 145.062 320.196 145.142L348.532 145.142C348.855 142.155 349.016 138.603 349.016 134.486 349.016 129.319 348.774 123.426 348.29 116.806 324.232 128.674 298.601 138.765 271.395 147.08 266.067 139.33 259.528 131.822 251.778 124.556 288.752 119.228 321.81 108.047 350.954 91.0134 341.105 82.4561 332.83 74.7061 326.129 67.7634L342.84 52.6267C352.609 64.4939 361.61 73.0916 369.844 78.4197 381.146 69.9431 391.399 61.1033 400.602 51.9002L334.122 51.9002C323.95 64.9783 311.396 78.8637 296.461 93.5564 289.438 88.309 280.921 83.7478 270.911 79.8728 301.023 59.2062 322.497 33.4132 335.332 2.49391Z" stroke="#70AD47" stroke-width="2" stroke-linejoin="round" stroke-miterlimit="10" fill="#FFFFFF" fill-rule="evenodd"/></g></g><path d="M4656.52 541.033 4656.52 612.236C4665.32 605.858 4673.92 597.583 4682.31 587.412 4672.79 574.979 4664.19 559.52 4656.52 541.033ZM5070.14 540.548C5078.06 541.678 5086.65 542.445 5095.94 542.849L5213.52 542.849C5223.61 542.445 5232.21 541.678 5239.31 540.548L5239.31 563.677C5228.66 562.466 5220.06 561.699 5213.52 561.376L5137.35 561.376 5150.79 567.068C5153.78 568.44 5155.11 570.055 5154.79 571.912 5154.22 573.768 5152.21 574.979 5148.73 575.544 5145.59 575.867 5143.04 577.442 5141.11 580.267 5134.81 588.259 5126.94 597.866 5117.49 609.087 5139.69 607.553 5162.7 606.141 5186.52 604.849 5180.95 598.068 5174.81 591.044 5168.11 583.779L5186.52 570.337C5204.28 589.712 5220.06 608.805 5233.86 627.615L5214.49 642.994C5209.97 636.051 5205.33 629.189 5200.56 622.408 5130.49 626.767 5093.07 631.651 5088.31 637.06L5079.59 612.72C5088.95 609.895 5096.3 605.01 5101.63 598.068 5111.15 586.201 5119.03 573.97 5125.24 561.376L5095.94 561.376C5090.61 561.538 5082.01 562.305 5070.14 563.677ZM4673.59 530.861C4679.49 545.311 4686.27 557.824 4693.94 568.4 4699.75 557.744 4704.47 545.231 4708.11 530.861ZM5085.04 501.677C5094.24 502.646 5103 503.292 5111.32 503.615L5194.87 503.615C5203.51 503.292 5212.27 502.646 5221.15 501.677L5221.15 524.443C5210.17 523.232 5201.41 522.505 5194.87 522.263L5111.32 522.263C5105.58 522.505 5096.83 523.232 5085.04 524.443ZM4564 500.466C4564 508.943 4563.96 515.442 4563.88 519.962 4563.8 525.29 4563.68 530.78 4563.52 536.431L4594.28 536.431 4594.28 500.466ZM4564.49 446.095 4564.49 481.818 4594.28 481.818 4594.28 446.095ZM5067.96 445.126 5067.96 463.412 5196.45 463.412 5196.45 445.126ZM4539.91 425.267C4549.11 426.639 4556.98 427.366 4563.52 427.447L4593.79 427.447C4602.43 427.205 4610.71 426.478 4618.62 425.267 4617.81 430.757 4617.29 436.125 4617.04 441.372 4616.72 446.458 4616.56 452.755 4616.56 460.263L4616.56 612.478C4617.04 622.731 4614.7 629.068 4609.54 631.49 4605.1 634.557 4592.46 636.899 4571.63 638.513 4570.1 629.875 4567.64 621.197 4564.25 612.478 4565.46 612.559 4567.15 612.72 4569.33 612.962 4578.7 613.931 4584.27 614.375 4586.04 614.294 4592.18 614.698 4594.92 612.115 4594.28 606.544L4594.28 554.958 4562.55 554.958C4560.94 583.859 4554.15 612.559 4542.21 641.056 4534.21 637.343 4525.29 634.356 4515.45 632.095 4534.09 610.621 4542.93 571.79 4541.96 515.603L4541.96 458.447C4541.96 447.71 4541.28 436.65 4539.91 425.267ZM4632.18 424.783C4640.41 426.074 4650.67 426.801 4662.94 426.962L4703.87 426.962C4712.51 426.801 4720.94 426.074 4729.18 424.783 4728.13 430.676 4727.48 438.345 4727.24 447.79 4727.16 448.679 4727.04 450.858 4726.88 454.33 4726.47 463.048 4726.15 468.82 4725.91 471.646 4725.34 482.544 4721.63 489.971 4714.77 493.927 4708.23 498.206 4695.75 500.789 4677.35 501.677 4675.25 494.25 4671.94 485.572 4667.42 475.642 4677.11 477.337 4685.06 478.225 4691.27 478.306 4699.67 478.871 4704.03 475.561 4704.35 468.376 4704.84 463.129 4705.24 455.54 4705.56 445.611L4656.52 445.611 4656.52 512.333 4704.11 512.333C4714.77 512.172 4725.34 511.324 4735.84 509.79 4727.04 542.97 4717.71 568.037 4707.86 584.99 4721.1 597.18 4737.89 607.109 4758.24 614.779 4750.97 619.945 4744.6 626.727 4739.11 635.122 4723.04 625.839 4708.83 615.061 4696.48 602.79 4689.62 611.913 4679.85 622.852 4667.18 635.607 4663.46 631.974 4659.91 629.068 4656.52 626.888 4656.68 632.135 4657.17 637.585 4657.97 643.236L4632.18 643.236C4633.31 632.337 4634 620.026 4634.24 606.302L4634.24 460.99C4634.08 449.849 4633.39 437.78 4632.18 424.783ZM5220.66 424.298C5219.78 432.936 5219.21 440.969 5218.97 448.396L5218.97 460.99C5219.21 468.82 5219.78 476.49 5220.66 483.997 5211.06 482.948 5202.9 482.302 5196.2 482.06L5067.96 482.06 5067.96 504.826C5068.05 508.136 5068.09 511.728 5068.09 515.603 5068.09 570.418 5057.55 611.832 5036.48 639.845 5029.46 634.517 5020.33 630.844 5009.11 628.826 5034.38 610.258 5046.45 569.772 5045.32 507.369L5045.32 449.365C5045.08 441.534 5044.51 433.259 5043.62 424.54 5054.12 425.59 5063.04 426.236 5070.39 426.478L5194.87 426.478C5202.94 426.155 5211.54 425.429 5220.66 424.298ZM4848.7 410.857 4873.76 421.029C4875.62 421.836 4876.43 422.865 4876.18 424.117 4875.94 425.368 4874.73 426.397 4872.55 427.205 4870.86 427.931 4869.12 429.344 4867.34 431.443 4864.36 435.318 4861.61 438.87 4859.11 442.099L4931.77 442.099C4936.29 442.341 4945.81 441.534 4960.34 439.677 4948.8 457.438 4929.79 477.095 4903.31 498.65 4927.85 512.697 4961.47 521.214 5004.18 524.201 4994.9 530.497 4987.87 539.337 4983.11 550.72 4944.84 543.051 4911.62 530.336 4883.45 512.576 4877.96 516.289 4871.26 520.164 4863.35 524.201L4890.59 528.681C4892.94 529.165 4894.11 530.134 4894.11 531.587 4894.11 533.202 4892.69 535.462 4889.87 538.369 4888.9 539.257 4888.17 541.073 4887.69 543.818L4886.11 553.505 4929.1 553.505C4938.95 553.425 4949.28 552.658 4960.1 551.205 4957.76 559.843 4955.5 574.172 4953.32 594.193 4951.71 613.326 4947.1 625.718 4939.52 631.369 4932.81 637.665 4917.68 641.783 4894.11 643.72 4889.99 633.629 4885.67 625.031 4881.15 617.927 4882.2 618.008 4884.42 618.129 4887.81 618.29 4895.72 618.775 4900.52 619.017 4902.22 619.017 4916.02 619.178 4923.73 615.869 4925.35 609.087 4927.61 602.548 4929.59 590.035 4931.28 571.548L4882.48 571.548C4876.02 606.585 4847.4 631.409 4796.62 646.021 4793.8 638.352 4787.79 630.884 4778.58 623.619 4821.93 617.725 4848.45 600.369 4858.14 571.548L4833.56 571.548C4823.63 571.71 4812.65 572.638 4800.62 574.333L4800.62 551.205C4812.49 552.658 4823.47 553.425 4833.56 553.505L4861.89 553.505C4862.22 550.518 4862.38 546.966 4862.38 542.849 4862.38 537.682 4862.14 531.789 4861.65 525.169 4837.6 537.037 4811.96 547.128 4784.76 555.443 4779.43 547.693 4772.89 540.185 4765.14 532.919 4802.11 527.591 4835.17 516.41 4864.32 499.376 4854.47 490.819 4846.19 483.069 4839.49 476.126L4856.2 460.99C4865.97 472.857 4874.97 481.455 4883.21 486.783 4894.51 478.306 4904.76 469.466 4913.96 460.263L4847.48 460.263C4837.31 473.341 4824.76 487.227 4809.82 501.919 4802.8 496.672 4794.28 492.111 4784.27 488.236 4814.39 467.569 4835.86 441.776 4848.7 410.857Z" stroke="#70AD47" stroke-width="2" stroke-linejoin="round" stroke-miterlimit="10" fill="#FFFFFF" fill-rule="evenodd"/><text fill="#000000" fill-opacity="0" font-family="Arial,Arial_MSFontService,sans-serif" font-size="235.164" x="4515.45" y="616.625">服务层</text><g clip-path="url(#clip6)" filter="url(#fx2)" transform="translate(5922 324)"><g><path d="M288.641 121.413 288.641 147.683 328.404 147.683 328.404 121.413ZM45.8618 116.051 39.0708 128.472C45.5044 130.497 51.1636 132.463 56.0483 134.369 60.0396 129.246 63.584 123.14 66.6816 116.051ZM407.5 97.9123C413.338 98.7462 419.683 99.3122 426.533 99.61L513.297 99.61C520.744 99.3122 527.088 98.7462 532.33 97.9123L532.33 114.979C524.467 114.086 518.122 113.52 513.297 113.281L457.093 113.281 467.011 117.481C469.215 118.494 470.198 119.685 469.96 121.055 469.543 122.425 468.054 123.319 465.492 123.736 463.169 123.974 461.292 125.136 459.863 127.221 455.216 133.118 449.408 140.207 442.438 148.487 458.82 147.356 475.798 146.313 493.371 145.36 489.261 140.356 484.733 135.173 479.789 129.812L493.371 119.894C506.477 134.191 518.122 148.279 528.309 162.159L514.012 173.507C510.676 168.384 507.251 163.32 503.736 158.317 452.029 161.533 424.418 165.137 420.904 169.129L414.47 151.168C421.38 149.083 426.801 145.479 430.733 140.356 437.762 131.599 443.57 122.574 448.157 113.281L426.533 113.281C422.602 113.401 416.257 113.966 407.5 114.979ZM418.491 69.2292C425.282 69.944 431.746 70.4206 437.881 70.6589L499.537 70.6589C505.911 70.4206 512.374 69.944 518.927 69.2292L518.927 86.028C510.825 85.1344 504.362 84.5983 499.537 84.4196L437.881 84.4196C433.652 84.5983 427.188 85.1344 418.491 86.028ZM299.81 57.7023 319.2 60.0256C321.047 60.2638 322.06 60.9936 322.238 62.2148 322.417 63.436 321.702 64.7316 320.094 66.1017 318.128 67.5314 317.115 70.2716 317.056 74.3224L316.877 76.0202 334.212 76.0202C339.037 75.9606 344.905 75.4543 351.815 74.5011L351.815 90.7638C345.441 89.8107 339.573 89.3341 334.212 89.3341L316.52 89.3341 315.894 108.009 326.17 108.009C331.71 108.069 338.292 107.533 345.917 106.401 344.905 114.145 344.428 120.043 344.488 124.093L344.488 150.275C344.488 155.815 344.964 162.457 345.917 170.201L327.063 170.201C327.838 166.448 328.285 163.35 328.404 160.908L288.819 160.908C288.998 164.065 289.385 167.669 289.981 171.72L271.127 171.72C272.08 163.797 272.557 157.125 272.557 151.704L272.557 124.451C272.437 119.268 271.961 113.252 271.127 106.401 280.122 107.414 287.3 107.95 292.662 108.009L299.631 108.009 300.167 89.3341 288.104 89.3341C283.16 89.3341 277.173 89.8107 270.144 90.7638L270.144 74.5011C278.067 75.4543 284.054 75.9606 288.104 76.0202L300.704 76.0202 300.704 75.216C300.882 69.5568 300.584 63.7189 299.81 57.7023ZM66.8604 56.63C72.4004 59.9064 78.3276 63.987 84.6421 68.8717 87.7397 65.1784 90.48 61.5744 92.8628 58.0597 84.3442 57.1662 78.5957 56.6896 75.6172 56.63ZM405.892 27.5002 405.892 40.9928 500.698 40.9928 500.698 27.5002ZM268.893 24.9089 268.893 43.9416 325.812 43.9416 325.812 24.9089ZM27.9014 12.3097C32.7266 18.4455 37.4326 25.1471 42.0195 32.4147L28.0801 41.797C24.208 34.589 19.9487 27.7384 15.3023 21.2453 14.8853 20.6496 14.5576 20.173 14.3193 19.8156ZM518.569 12.131C517.914 18.5051 517.497 24.4323 517.318 29.9128L517.318 39.2057C517.497 44.984 517.914 50.6432 518.569 56.1833 511.48 55.4089 505.464 54.9323 500.52 54.7536L405.892 54.7536 405.892 71.5524C405.952 73.9948 405.981 76.6457 405.981 79.505 405.981 119.953 398.207 150.513 382.66 171.184 377.477 167.252 370.746 164.542 362.465 163.052 381.111 149.351 390.017 119.477 389.183 73.4289L389.183 30.6276C389.004 24.8493 388.587 18.7433 387.932 12.3097 395.676 13.0842 402.258 13.5607 407.679 13.7394L499.537 13.7394C505.494 13.5011 511.838 12.965 518.569 12.131ZM82.2295 8.64616 94.4712 18.1178C96.437 19.6071 97.4199 20.8879 97.4199 21.9601 97.4199 22.1984 97.3901 22.4069 97.3306 22.5856 96.9136 23.7174 95.186 24.4323 92.1479 24.7301 91.2544 24.7301 89.7056 25.9513 87.5015 28.3937 87.144 28.8703 86.4888 29.7341 85.5356 30.985 82.5571 34.8571 79.6382 38.6994 76.7788 42.5119 73.0259 39.1759 68.7368 35.9889 63.9116 32.9508 70.7026 26.2194 76.4512 18.7135 81.1572 10.4333 81.6338 9.65886 81.9912 9.06316 82.2295 8.64616ZM110.376 2.7487 130.75 8.46745C132.417 8.94402 133.222 9.778 133.162 10.9694 132.983 12.1608 132 13.2033 130.213 14.0968 128.128 15.2287 126.848 16.7775 126.371 18.7433 122.678 31.4318 119.729 40.5758 117.525 46.1755L150.676 46.1755C156.156 45.9967 161.905 45.55 167.921 44.8351L167.921 61.3659C166.79 61.2467 165.211 61.0978 163.186 60.9191 155.978 60.1447 151.808 59.7873 150.676 59.8468 147.697 88.798 142.217 110.392 134.234 124.63 146.625 140.058 160.535 151.228 175.963 158.138 169.232 161.414 163.543 166.478 158.896 173.328 145.851 164.929 134.502 153.581 124.852 139.284 114.07 153.462 100.905 165.435 85.3569 175.205 81.6636 169.426 76.6001 165.078 70.1665 162.159 70.6431 161.861 71.3579 161.474 72.311 160.997 73.8599 160.163 74.9619 159.508 75.6172 159.031 71.8643 156.887 66.7412 154.444 60.248 151.704 49.7041 160.223 36.0625 167.49 19.3233 173.507 15.9277 167.907 11.2217 162.367 5.20508 156.887 21.7061 155.993 34.752 152.032 44.3428 145.003 35.8242 141.726 26.4419 138.718 16.1958 135.978 21.3784 128.889 25.3994 122.247 28.2588 116.051L22.7188 116.051C18.5488 116.23 12.6514 116.707 5.02637 117.481L5.02637 101.218C13.9619 102.172 19.8594 102.678 22.7188 102.737L34.6924 102.737C37.3731 96.3634 39.3687 91.0915 40.6792 86.9215L56.5845 92.2829C58.9077 92.9977 59.9949 93.9806 59.8459 95.2316 59.697 96.4826 58.3716 97.6442 55.8696 98.7165 54.9165 99.0739 54.1421 99.7887 53.5464 100.861L52.5635 102.737 70.1665 102.737C77.5532 102.678 84.1953 102.291 90.0928 101.576 86.1611 114.562 79.936 127.31 71.4175 139.82L86.4292 145.896C83.9868 149.649 82.1104 153.074 80.7998 156.172 94.4414 149.024 105.67 138.569 114.487 124.808 106.326 112.298 100.458 97.4953 96.8838 80.3986 103.079 79.8625 108.798 78.8796 114.04 77.4499 115.172 85.6706 118.418 95.7975 123.78 107.831 128.248 98.0612 131.613 82.0666 133.877 59.8468L111.717 59.8468C107.606 66.8761 103.407 73.1608 99.1177 78.7008 96.5562 77.4499 93.7861 76.2287 90.8076 75.0373 86.6377 79.5646 83.3018 83.6154 80.7998 87.1896 74.1875 80.2199 67.8433 74.1735 61.7671 69.0505L61.7671 72.714C61.8862 77.1222 62.3032 82.1261 63.0181 87.7257L44.3428 87.7257C45.1172 81.173 45.5342 75.9904 45.5938 72.1779L45.5938 69.0505C38.3262 78.7008 28.7651 87.964 16.9107 96.84 13.2173 92.4914 8.33252 88.4704 2.25635 84.777 17.9829 76.735 29.6289 67.3527 37.1943 56.63L26.561 56.63C21.9146 56.7492 15.8384 57.2257 8.33252 58.0597L8.33252 41.797C16.3745 42.631 22.4507 43.1076 26.561 43.2267L45.5938 43.2267 45.5938 24.0153C45.415 20.0837 44.9385 13.2629 44.1641 3.5529L61.231 6.23357C65.6392 6.94841 67.9624 7.75261 68.2007 8.64616 68.2603 8.7653 68.29 8.94402 68.29 9.1823 68.29 10.195 67.0688 11.714 64.6265 13.7394 62.6606 15.05 61.7075 18.5944 61.7671 24.3727L61.7671 43.2267 75.6172 43.2267C77.7617 43.2267 83.8081 42.7502 93.7563 41.797L93.7563 56.63C102.156 44.1203 107.696 26.1598 110.376 2.7487ZM211.795 2.39128 231.006 4.80388C233.27 5.1613 234.521 5.99529 234.759 7.30583 234.878 8.61638 233.925 10.1652 231.9 11.9523 230.232 13.4416 229.398 16.5988 229.398 21.424L229.398 41.6183 231.542 41.6183C236.487 41.6779 242.593 41.112 249.86 39.9206L249.86 56.8088C242.95 55.7365 236.844 55.2301 231.542 55.2897L229.398 55.2897 229.398 82.1857C234.104 79.2668 240.627 75.0075 248.967 69.4079L246.197 89.6916C242.98 91.0617 238.036 93.5636 231.364 97.1974 230.411 97.7336 229.755 98.091 229.398 98.2697L229.398 148.487C238.214 139.314 244.261 128.74 247.537 116.766 250.873 105.15 252.511 88.2619 252.452 66.1017L252.452 30.8063C252.332 24.0153 251.767 17.0456 250.754 9.89714 259.392 10.9694 267.463 11.5353 274.969 11.5949L320.54 11.5949C327.868 11.6545 335.612 11.0885 343.773 9.89714 342.641 17.3434 342.075 23.9259 342.075 29.6447L342.075 38.8483C342.016 43.7331 342.582 50.4347 343.773 58.9533 335.969 57.881 328.88 57.3449 322.506 57.3449L268.893 57.3449 268.893 65.2082C269.012 89.215 267.225 107.741 263.532 120.787 260.077 134.131 253.077 148.1 242.533 162.695 238.423 159.419 233.985 156.738 229.219 154.653 228.921 160.253 226.777 164.065 222.786 166.09 219.152 168.235 211.527 169.724 199.911 170.558 199.672 165.376 197.468 158.972 193.298 151.347 201.638 152.836 206.702 153.581 208.489 153.581 211.825 153.7 213.403 151.674 213.225 147.505L213.225 107.831C210.901 109.26 206.94 111.792 201.34 115.426 198.064 117.511 195.622 119.06 194.013 120.072L182.129 104.525C192.315 101.248 202.681 96.6613 213.225 90.7638L213.225 55.2897 204.289 55.2897C198.987 55.2897 192.881 55.7961 185.971 56.8088L185.971 39.9206C193.537 40.9928 199.762 41.5588 204.646 41.6183L213.225 41.6183 213.225 24.0153C213.105 17.5817 212.629 10.3737 211.795 2.39128Z" stroke="#8FAADC" stroke-width="2" stroke-linejoin="round" stroke-miterlimit="10" fill="#FFFFFF" fill-rule="evenodd"/></g></g><path d="M6204.4 439.172 6204.4 465.442 6244.16 465.442 6244.16 439.172ZM5961.62 433.811 5954.83 446.231C5961.26 448.256 5966.92 450.222 5971.81 452.128 5975.8 447.005 5979.34 440.899 5982.44 433.811ZM6323.26 415.671C6329.1 416.505 6335.44 417.071 6342.29 417.369L6429.06 417.369C6436.5 417.071 6442.85 416.505 6448.09 415.671L6448.09 432.738C6440.23 431.845 6433.88 431.279 6429.06 431.041L6372.85 431.041 6382.77 435.24C6384.97 436.253 6385.96 437.444 6385.72 438.814 6385.3 440.185 6383.81 441.078 6381.25 441.495 6378.93 441.733 6377.05 442.895 6375.62 444.98 6370.98 450.877 6365.17 457.966 6358.2 466.247 6374.58 465.115 6391.56 464.072 6409.13 463.119 6405.02 458.115 6400.49 452.933 6395.55 447.571L6409.13 437.653C6422.24 451.95 6433.88 466.038 6444.07 479.918L6429.77 491.266C6426.44 486.143 6423.01 481.08 6419.5 476.076 6367.79 479.292 6340.18 482.896 6336.66 486.888L6330.23 468.927C6337.14 466.842 6342.56 463.238 6346.49 458.115 6353.52 449.358 6359.33 440.333 6363.92 431.041L6342.29 431.041C6338.36 431.16 6332.02 431.726 6323.26 432.738ZM6334.25 386.988C6341.04 387.703 6347.5 388.18 6353.64 388.418L6415.3 388.418C6421.67 388.18 6428.13 387.703 6434.69 386.988L6434.69 403.787C6426.58 402.894 6420.12 402.357 6415.3 402.179L6353.64 402.179C6349.41 402.357 6342.95 402.894 6334.25 403.787ZM6215.57 375.461 6234.96 377.785C6236.81 378.023 6237.82 378.753 6238 379.974 6238.18 381.195 6237.46 382.491 6235.85 383.861 6233.89 385.291 6232.87 388.031 6232.81 392.082L6232.64 393.779 6249.97 393.779C6254.8 393.72 6260.66 393.213 6267.57 392.26L6267.57 408.523C6261.2 407.57 6255.33 407.093 6249.97 407.093L6232.28 407.093 6231.65 425.769 6241.93 425.769C6247.47 425.828 6254.05 425.292 6261.68 424.16 6260.66 431.904 6260.19 437.802 6260.25 441.853L6260.25 468.034C6260.25 473.574 6260.72 480.216 6261.68 487.96L6242.82 487.96C6243.6 484.207 6244.04 481.109 6244.16 478.667L6204.58 478.667C6204.76 481.824 6205.14 485.428 6205.74 489.479L6186.89 489.479C6187.84 481.556 6188.32 474.884 6188.32 469.463L6188.32 442.21C6188.2 437.027 6187.72 431.011 6186.89 424.16 6195.88 425.173 6203.06 425.709 6208.42 425.769L6215.39 425.769 6215.93 407.093 6203.86 407.093C6198.92 407.093 6192.93 407.57 6185.9 408.523L6185.9 392.26C6193.83 393.213 6199.81 393.72 6203.86 393.779L6216.46 393.779 6216.46 392.975C6216.64 387.316 6216.34 381.478 6215.57 375.461ZM5982.62 374.389C5988.16 377.666 5994.09 381.746 6000.4 386.631 6003.5 382.938 6006.24 379.333 6008.62 375.819 6000.1 374.925 5994.35 374.449 5991.38 374.389ZM6321.65 345.259 6321.65 358.752 6416.46 358.752 6416.46 345.259ZM6184.65 342.668 6184.65 361.701 6241.57 361.701 6241.57 342.668ZM5943.66 330.069C5948.49 336.205 5953.19 342.906 5957.78 350.174L5943.84 359.556C5939.97 352.348 5935.71 345.498 5931.06 339.004 5930.64 338.409 5930.32 337.932 5930.08 337.575ZM6434.33 329.89C6433.67 336.264 6433.26 342.191 6433.08 347.672L6433.08 356.965C6433.26 362.743 6433.67 368.402 6434.33 373.942 6427.24 373.168 6421.22 372.691 6416.28 372.513L6321.65 372.513 6321.65 389.312C6321.71 391.754 6321.74 394.405 6321.74 397.264 6321.74 437.712 6313.97 468.272 6298.42 488.943 6293.24 485.011 6286.5 482.301 6278.22 480.812 6296.87 467.11 6305.78 437.236 6304.94 391.188L6304.94 348.387C6304.76 342.608 6304.35 336.502 6303.69 330.069 6311.44 330.843 6318.02 331.32 6323.44 331.499L6415.3 331.499C6421.25 331.26 6427.6 330.724 6434.33 329.89ZM5997.99 326.405 6010.23 335.877C6012.2 337.366 6013.18 338.647 6013.18 339.719 6013.18 339.958 6013.15 340.166 6013.09 340.345 6012.67 341.477 6010.95 342.191 6007.91 342.489 6007.01 342.489 6005.46 343.71 6003.26 346.153 6002.9 346.629 6002.25 347.493 6001.29 348.744 5998.32 352.616 5995.4 356.458 5992.54 360.271 5988.79 356.935 5984.5 353.748 5979.67 350.71 5986.46 343.979 5992.21 336.473 5996.92 328.192 5997.39 327.418 5997.75 326.822 5997.99 326.405ZM6026.14 320.508 6046.51 326.227C6048.18 326.703 6048.98 327.537 6048.92 328.729 6048.74 329.92 6047.76 330.962 6045.97 331.856 6043.89 332.988 6042.61 334.537 6042.13 336.502 6038.44 349.191 6035.49 358.335 6033.28 363.935L6066.44 363.935C6071.92 363.756 6077.66 363.309 6083.68 362.594L6083.68 379.125C6082.55 379.006 6080.97 378.857 6078.94 378.678 6071.74 377.904 6067.57 377.546 6066.44 377.606 6063.46 406.557 6057.98 428.151 6049.99 442.389 6062.38 457.817 6076.29 468.987 6091.72 475.897 6084.99 479.173 6079.3 484.237 6074.66 491.087 6061.61 482.688 6050.26 471.34 6040.61 457.043 6029.83 471.221 6016.66 483.194 6001.12 492.964 5997.42 487.186 5992.36 482.837 5985.93 479.918 5986.4 479.62 5987.12 479.233 5988.07 478.756 5989.62 477.922 5990.72 477.267 5991.38 476.791 5987.62 474.646 5982.5 472.204 5976.01 469.463 5965.46 477.982 5951.82 485.25 5935.08 491.266 5931.69 485.667 5926.98 480.126 5920.96 474.646 5937.47 473.752 5950.51 469.791 5960.1 462.762 5951.58 459.485 5942.2 456.477 5931.96 453.737 5937.14 446.648 5941.16 440.006 5944.02 433.811L5938.48 433.811C5934.31 433.989 5928.41 434.466 5920.79 435.24L5920.79 418.978C5929.72 419.931 5935.62 420.437 5938.48 420.497L5950.45 420.497C5953.13 414.123 5955.13 408.851 5956.44 404.681L5972.34 410.042C5974.67 410.757 5975.75 411.74 5975.61 412.991 5975.46 414.242 5974.13 415.403 5971.63 416.476 5970.68 416.833 5969.9 417.548 5969.31 418.62L5968.32 420.497 5985.93 420.497C5993.31 420.437 5999.95 420.05 6005.85 419.335 6001.92 432.321 5995.7 445.069 5987.18 457.579L6002.19 463.655C5999.75 467.408 5997.87 470.833 5996.56 473.931 6010.2 466.783 6021.43 456.328 6030.25 442.567 6022.08 430.058 6016.22 415.254 6012.64 398.158 6018.84 397.622 6024.56 396.639 6029.8 395.209 6030.93 403.43 6034.18 413.557 6039.54 425.59 6044.01 415.82 6047.37 399.826 6049.64 377.606L6027.48 377.606C6023.37 384.635 6019.17 390.92 6014.88 396.46 6012.32 395.209 6009.55 393.988 6006.57 392.796 6002.4 397.324 5999.06 401.375 5996.56 404.949 5989.95 397.979 5983.6 391.933 5977.53 386.81L5977.53 390.473C5977.65 394.881 5978.06 399.885 5978.78 405.485L5960.1 405.485C5960.88 398.932 5961.29 393.75 5961.35 389.937L5961.35 386.81C5954.09 396.46 5944.52 405.723 5932.67 414.599 5928.98 410.25 5924.09 406.229 5918.02 402.536 5933.74 394.494 5945.39 385.112 5952.95 374.389L5942.32 374.389C5937.67 374.508 5931.6 374.985 5924.09 375.819L5924.09 359.556C5932.13 360.39 5938.21 360.867 5942.32 360.986L5961.35 360.986 5961.35 341.774C5961.17 337.843 5960.7 331.022 5959.92 321.312L5976.99 323.993C5981.4 324.708 5983.72 325.512 5983.96 326.405 5984.02 326.524 5984.05 326.703 5984.05 326.941 5984.05 327.954 5982.83 329.473 5980.39 331.499 5978.42 332.809 5977.47 336.354 5977.53 342.132L5977.53 360.986 5991.38 360.986C5993.52 360.986 5999.57 360.509 6009.52 359.556L6009.52 374.389C6017.92 361.879 6023.46 343.919 6026.14 320.508ZM6127.55 320.15 6146.77 322.563C6149.03 322.92 6150.28 323.754 6150.52 325.065 6150.64 326.375 6149.68 327.924 6147.66 329.711 6145.99 331.201 6145.16 334.358 6145.16 339.183L6145.16 359.377 6147.3 359.377C6152.25 359.437 6158.35 358.871 6165.62 357.68L6165.62 374.568C6158.71 373.496 6152.6 372.989 6147.3 373.049L6145.16 373.049 6145.16 399.945C6149.86 397.026 6156.39 392.767 6164.73 387.167L6161.96 407.451C6158.74 408.821 6153.79 411.323 6147.12 414.957 6146.17 415.493 6145.51 415.85 6145.16 416.029L6145.16 466.247C6153.97 457.073 6160.02 446.499 6163.3 434.525 6166.63 422.909 6168.27 406.021 6168.21 383.861L6168.21 348.565C6168.09 341.774 6167.53 334.805 6166.51 327.656 6175.15 328.729 6183.22 329.294 6190.73 329.354L6236.3 329.354C6243.63 329.414 6251.37 328.848 6259.53 327.656 6258.4 335.103 6257.83 341.685 6257.83 347.404L6257.83 356.607C6257.77 361.492 6258.34 368.194 6259.53 376.712 6251.73 375.64 6244.64 375.104 6238.27 375.104L6184.65 375.104 6184.65 382.967C6184.77 406.974 6182.98 425.5 6179.29 438.546 6175.84 451.89 6168.84 465.859 6158.29 480.454 6154.18 477.178 6149.74 474.497 6144.98 472.412 6144.68 478.012 6142.54 481.824 6138.54 483.85 6134.91 485.994 6127.29 487.483 6115.67 488.317 6115.43 483.135 6113.23 476.731 6109.06 469.106 6117.4 470.595 6122.46 471.34 6124.25 471.34 6127.58 471.459 6129.16 469.434 6128.98 465.264L6128.98 425.59C6126.66 427.02 6122.7 429.551 6117.1 433.185 6113.82 435.27 6111.38 436.819 6109.77 437.832L6097.89 422.284C6108.07 419.007 6118.44 414.42 6128.98 408.523L6128.98 373.049 6120.05 373.049C6114.75 373.049 6108.64 373.555 6101.73 374.568L6101.73 357.68C6109.3 358.752 6115.52 359.318 6120.41 359.377L6128.98 359.377 6128.98 341.774C6128.86 335.341 6128.39 328.133 6127.55 320.15Z" stroke="#8FAADC" stroke-width="2" stroke-linejoin="round" stroke-miterlimit="10" fill="#FFFFFF" fill-rule="evenodd"/><text fill="#000000" fill-opacity="0" font-family="Arial,Arial_MSFontService,sans-serif" font-size="172.813" x="5918.02" y="471.362">数据层</text><path d="M1305 664.334C1306.5 639.965 1323.55 619.019 1348.39 621 1425.54 609.98 1480.6 639.758 1553.11 621 1625.62 602.242 1683.45 631.698 1719.92 621 1756.39 610.302 1805.72 626.908 1886.73 621 1967.73 615.092 2033.09 639.901 2106.61 621 2131.01 625.255 2148.15 647.124 2150 664.334 2169.57 738.252 2133.08 801.365 2150 837.666 2151.39 861.944 2137.22 882.025 2106.61 881 2061.85 898.344 1979.42 871.691 1939.8 881 1900.18 890.309 1812.43 866.171 1750.25 881 1688.06 895.829 1658.56 863.225 1583.44 881 1508.32 898.775 1432.16 869.498 1348.39 881 1323.51 875.918 1308.41 860.47 1305 837.666 1286.33 780.955 1311.79 722.539 1305 664.334Z" stroke="#000000" stroke-width="13.75" stroke-linejoin="round" stroke-miterlimit="10" fill="none" fill-rule="evenodd"/><text font-family="DengXian,DengXian_MSFontService,sans-serif" font-weight="400" font-size="83" transform="matrix(1 0 0 1 1439.41 729)">使用</text><text font-family="Calibri,Calibri_MSFontService,sans-serif" font-weight="400" font-size="83" transform="matrix(1 0 0 1 1604.41 729)">vue3</text><text font-family="DengXian,DengXian_MSFontService,sans-serif" font-weight="400" font-size="83" transform="matrix(1 0 0 1 1768.26 729)">编写的</text><text font-family="Calibri,Calibri_MSFontService,sans-serif" font-weight="400" font-size="83" transform="matrix(1 0 0 1 1448.37 828)">WebUI</text><text font-family="DengXian,DengXian_MSFontService,sans-serif" font-weight="400" font-size="83" transform="matrix(1 0 0 1 1676.8 828)">用户界面</text><path d="M2420.45 669.5C2418.26 697.25 2422.83 702.825 2420.45 726 2477.92 736.49 2568.41 715.981 2640.43 726 2712.44 736.019 2751.16 724.721 2843.48 726 2935.79 727.28 3001.36 733.843 3063.45 726 3125.54 718.158 3191.2 729.932 3266.5 726 3271.16 754.02 3264.79 805.836 3266.5 839 3207.75 834.816 3119.07 840.952 3063.45 839 3007.83 837.049 2909.66 836.797 2860.4 839 2811.13 841.203 2736.13 843.04 2665.81 839 2595.48 834.961 2540.5 834.2 2420.45 839 2418.85 864.977 2419.55 883.555 2420.45 895.5 2384.77 861.207 2359.73 834.561 2307.5 782.5 2333.63 745.885 2378.61 712.927 2420.45 669.5Z" stroke="#000000" stroke-width="6.875" stroke-miterlimit="8" fill="none" fill-rule="evenodd"/><text font-family="DengXian,DengXian_MSFontService,sans-serif" font-weight="400" font-size="50" transform="matrix(1 0 0 1 2492.03 799)">均由</text><text font-family="Calibri,Calibri_MSFontService,sans-serif" font-weight="400" font-size="50" transform="matrix(1 0 0 1 2592.87 799)">Nodejs</text><text font-family="DengXian,DengXian_MSFontService,sans-serif" font-weight="400" font-size="50" transform="matrix(1 0 0 1 2734.95 799)">提供</text><text font-family="Calibri,Calibri_MSFontService,sans-serif" font-weight="400" font-size="50" transform="matrix(1 0 0 1 2835.78 799)">vue3</text><text font-family="DengXian,DengXian_MSFontService,sans-serif" font-weight="400" font-size="50" transform="matrix(1 0 0 1 2936.04 799)">界面托管</text><path d="M3333 712.501C3334.5 688.037 3351.54 667.011 3376.37 669 3433.99 658.275 3507.8 680.291 3553.56 669 3599.32 657.709 3661.48 672.454 3697.94 669 3734.39 665.546 3786.72 675.03 3842.31 669 3897.91 662.969 3967.79 684.489 4032.63 669 4057.02 673.271 4074.15 695.224 4076 712.501 4095.56 786.703 4059.09 850.058 4076 886.499 4077.39 910.87 4063.23 931.029 4032.63 930 3989.42 930.114 3922.45 919.517 3888.25 930 3854.05 940.483 3769.06 911.116 3724.19 930 3679.32 948.884 3630.96 918.917 3579.81 930 3528.66 941.083 3444.6 913.958 3376.37 930 3351.5 924.898 3336.41 909.391 3333 886.499 3314.34 829.57 3339.78 770.929 3333 712.501Z" stroke="#000000" stroke-width="13.75" stroke-linejoin="round" stroke-miterlimit="10" fill="none" fill-rule="evenodd"/><text font-family="Calibri,Calibri_MSFontService,sans-serif" font-weight="400" font-size="73" transform="matrix(1 0 0 1 3389.85 823)">Nodejs</text><text font-family="DengXian,DengXian_MSFontService,sans-serif" font-weight="400" font-size="73" transform="matrix(1 0 0 1 3597.82 823)">作为</text><text font-family="Calibri,Calibri_MSFontService,sans-serif" font-weight="400" font-size="73" transform="matrix(1 0 0 1 3744.49 823)">web</text><text font-family="DengXian,DengXian_MSFontService,sans-serif" font-weight="400" font-size="73" transform="matrix(1 0 0 1 3871.61 823)">托管</text><path d="M1305 1040.33C1314.24 1004.32 1328.22 971.352 1365.43 980 1421.1 964.506 1476.45 994.192 1568.78 980 1661.1 965.808 1659.42 996.815 1734.47 980 1809.52 963.185 1831.84 998.792 1900.16 980 1968.48 961.208 2036.87 985.677 2118.57 980 2152.69 987.202 2178.21 1009.88 2179 1040.33 2183.06 1081.9 2168.98 1115.71 2179 1153.76 2189.02 1191.81 2172.41 1238.62 2179 1281.67 2186.72 1312.56 2144.79 1336.18 2118.57 1342 2036.6 1351.84 1992.24 1324.21 1922.75 1342 1853.27 1359.79 1792.49 1324.96 1757.06 1342 1721.64 1359.04 1610.26 1322.57 1553.71 1342 1497.16 1361.43 1406.69 1328.42 1365.43 1342 1334.01 1340.53 1301.97 1315.1 1305 1281.67 1303.24 1239.86 1316.64 1208 1305 1163.41 1293.36 1118.83 1319.5 1089.09 1305 1040.33Z" stroke="#000000" stroke-width="13.75" stroke-linejoin="round" stroke-miterlimit="10" fill="none" fill-rule="evenodd"/><text font-family="DengXian,DengXian_MSFontService,sans-serif" font-weight="400" font-size="83" transform="matrix(1 0 0 1 1360.47 1109)">使用</text><text font-family="Calibri,Calibri_MSFontService,sans-serif" font-weight="400" font-size="83" transform="matrix(1 0 0 1 1525.47 1109)">Tauri</text><text font-family="DengXian,DengXian_MSFontService,sans-serif" font-weight="400" font-size="37" transform="matrix(1 0 0 1 1700.07 1109)">(</text><text font-family="DengXian,DengXian_MSFontService,sans-serif" font-weight="400" font-size="37" transform="matrix(1 0 0 1 1710.96 1109)">暂定</text><text font-family="DengXian,DengXian_MSFontService,sans-serif" font-weight="400" font-size="37" transform="matrix(1 0 0 1 1784.29 1109)">)</text><text font-family="DengXian,DengXian_MSFontService,sans-serif" font-weight="400" font-size="83" transform="matrix(1 0 0 1 1795.18 1109)">打包</text><text font-family="Calibri,Calibri_MSFontService,sans-serif" font-weight="400" font-size="83" transform="matrix(1 0 0 1 1960.18 1109)">vue3</text><text font-family="DengXian,DengXian_MSFontService,sans-serif" font-weight="400" font-size="83" transform="matrix(1 0 0 1 1371.01 1208)">用户界面的桌面程序</text><text font-family="Calibri,Calibri_MSFontService,sans-serif" font-weight="400" font-size="50" transform="matrix(1 0 0 1 1540.87 1277)">(</text><text font-family="DengXian,DengXian_MSFontService,sans-serif" font-weight="400" font-size="50" transform="matrix(1 0 0 1 1556.34 1277)">轻量化的</text><text font-family="Calibri,Calibri_MSFontService,sans-serif" font-weight="400" font-size="50" transform="matrix(1 0 0 1 1758 1277)">electron)</text><path d="M1262 1550.5C1272.25 1499.74 1296.62 1454.74 1348.48 1464 1436.61 1461.98 1484.17 1476.54 1549.37 1464 1614.57 1451.46 1677.34 1479.16 1713.06 1464 1748.78 1448.84 1801.74 1466.31 1876.75 1464 1951.76 1461.69 2013.57 1478.32 2092.52 1464 2141.52 1476.04 2175.61 1515.07 2179 1550.5 2180.83 1605.74 2168.99 1670.38 2179 1713.12 2189.01 1755.86 2162.98 1807.27 2179 1896.5 2184.23 1942.62 2134.29 1978.12 2092.52 1983 2042.09 2005.92 1967.75 1978.95 1899.07 1983 1830.39 1987.05 1788.74 1971.73 1735.38 1983 1682.02 1994.27 1601.95 1965.68 1534.49 1983 1467.02 2000.32 1417.03 1973.56 1348.48 1983 1310.13 1975.94 1252.34 1944.63 1262 1896.5 1254.19 1813.25 1264.32 1799.36 1262 1726.96 1259.68 1654.56 1280.3 1611.73 1262 1550.5Z" stroke="#000000" stroke-width="13.75" stroke-linejoin="round" stroke-miterlimit="10" fill="none" fill-rule="evenodd"/><text font-family="DengXian,DengXian_MSFontService,sans-serif" font-weight="400" font-size="73" transform="matrix(1 0 0 1 1354.39 1604)">使用</text><text font-family="Calibri,Calibri_MSFontService,sans-serif" font-weight="400" font-size="73" transform="matrix(1 0 0 1 1501.06 1604)">flutter</text><text font-family="DengXian,DengXian_MSFontService,sans-serif" font-weight="400" font-size="37" transform="matrix(1 0 0 1 1698.63 1604)">(</text><text font-family="DengXian,DengXian_MSFontService,sans-serif" font-weight="400" font-size="37" transform="matrix(1 0 0 1 1709.51 1604)">暂定</text><text font-family="DengXian,DengXian_MSFontService,sans-serif" font-weight="400" font-size="37" transform="matrix(1 0 0 1 1782.84 1604)">)</text><text font-family="DengXian,DengXian_MSFontService,sans-serif" font-weight="400" font-size="73" transform="matrix(1 0 0 1 1793.73 1604)">开发的移</text><text font-family="DengXian,DengXian_MSFontService,sans-serif" font-weight="400" font-size="73" transform="matrix(1 0 0 1 1383.29 1692)">动端</text><text font-family="Calibri,Calibri_MSFontService,sans-serif" font-weight="400" font-size="73" transform="matrix(1 0 0 1 1529.96 1692)">App(</text><text font-family="Calibri,Calibri_MSFontService,sans-serif" font-weight="400" font-size="73" transform="matrix(1 0 0 1 1671.47 1692)">android&amp;ios</text><text font-family="Calibri,Calibri_MSFontService,sans-serif" font-weight="400" font-size="73" transform="matrix(1 0 0 1 2035.8 1692)">)</text><text font-family="Calibri,Calibri_MSFontService,sans-serif" font-weight="400" font-size="55" transform="matrix(1 0 0 1 1327.42 1763)">(</text><text font-family="DengXian,DengXian_MSFontService,sans-serif" font-weight="400" font-size="55" transform="matrix(1 0 0 1 1344.04 1763)">仅添加界面框架以适配移动端，</text><text font-family="DengXian,DengXian_MSFontService,sans-serif" font-weight="400" font-size="55" transform="matrix(1 0 0 1 1373.76 1829)">界面内依然为</text><text font-family="Calibri,Calibri_MSFontService,sans-serif" font-weight="400" font-size="55" transform="matrix(1 0 0 1 1703.76 1829)">webview</text><text font-family="DengXian,DengXian_MSFontService,sans-serif" font-weight="400" font-size="55" transform="matrix(1 0 0 1 1902.68 1829)">打开为</text><text font-family="DengXian,DengXian_MSFontService,sans-serif" font-weight="400" font-size="55" transform="matrix(1 0 0 1 1355.49 1895)">移动端适配过的</text><text font-family="Calibri,Calibri_MSFontService,sans-serif" font-weight="400" font-size="55" transform="matrix(1 0 0 1 1740.49 1895)">vue3</text><text font-family="DengXian,DengXian_MSFontService,sans-serif" font-weight="400" font-size="55" transform="matrix(1 0 0 1 1849.35 1895)">用户界面</text><text font-family="Calibri,Calibri_MSFontService,sans-serif" font-weight="400" font-size="55" transform="matrix(1 0 0 1 2069.35 1895)">)</text><path d="M3368 1156.17C3381.23 1093.68 3409.06 1035.33 3474.21 1050 3557.37 1040.43 3563.37 1069.89 3649.31 1050 3735.26 1030.11 3740.91 1055.41 3799.64 1050 3858.37 1044.59 3910.02 1052.17 3969.79 1050 4026.14 1050.14 4076.68 1108.88 4076 1156.17 4077.74 1238.23 4065.67 1310.24 4076 1360.01 4086.32 1409.77 4064.5 1506.1 4076 1580.83 4081.25 1640.77 4033.14 1687.72 3969.79 1687 3936.37 1704.1 3870.72 1675.26 3819.46 1687 3768.21 1698.74 3689.36 1667.87 3654.27 1687 3619.18 1706.13 3518.06 1686.82 3474.21 1687 3404.58 1697.23 3366.5 1647.61 3368 1580.83 3361.81 1500.24 3378.07 1438.63 3368 1372.75 3357.93 1306.86 3393.39 1257.89 3368 1156.17Z" stroke="#000000" stroke-width="13.75" stroke-linejoin="round" stroke-miterlimit="10" fill="none" fill-rule="evenodd"/><text font-family="Calibri,Calibri_MSFontService,sans-serif" font-weight="400" font-size="83" transform="matrix(1 0 0 1 3438.5 1198)">Cpp</text><text font-family="DengXian,DengXian_MSFontService,sans-serif" font-weight="400" font-size="83" transform="matrix(1 0 0 1 3569.7 1198)">搭配</text><text font-family="Calibri,Calibri_MSFontService,sans-serif" font-weight="400" font-size="83" transform="matrix(1 0 0 1 3734.7 1198)">crow</text><text font-family="DengXian,DengXian_MSFontService,sans-serif" font-weight="400" font-size="37" transform="matrix(1 0 0 1 3909.51 1198)">(</text><text font-family="DengXian,DengXian_MSFontService,sans-serif" font-weight="400" font-size="37" transform="matrix(1 0 0 1 3920.4 1198)">暂定</text><text font-family="DengXian,DengXian_MSFontService,sans-serif" font-weight="400" font-size="37" transform="matrix(1 0 0 1 3993.73 1198)">)</text><text font-family="DengXian,DengXian_MSFontService,sans-serif" font-weight="400" font-size="83" transform="matrix(1 0 0 1 3467.29 1297)">作为</text><text font-family="Calibri,Calibri_MSFontService,sans-serif" font-weight="400" font-size="83" transform="matrix(1 0 0 1 3632.29 1297)">http </text><text font-family="Calibri,Calibri_MSFontService,sans-serif" font-weight="400" font-size="83" transform="matrix(1 0 0 1 3791.35 1297)">api</text><text font-family="DengXian,DengXian_MSFontService,sans-serif" font-weight="400" font-size="83" transform="matrix(1 0 0 1 3893.33 1297)">实</text><text font-family="DengXian,DengXian_MSFontService,sans-serif" font-weight="400" font-size="83" transform="matrix(1 0 0 1 3474.07 1396)">现，与数据和</text><text font-family="Calibri,Calibri_MSFontService,sans-serif" font-weight="400" font-size="83" transform="matrix(1 0 0 1 3437.11 1495)">python</text><text font-family="DengXian,DengXian_MSFontService,sans-serif" font-weight="400" font-size="83" transform="matrix(1 0 0 1 3676.01 1495)">脚本进行</text><text font-family="DengXian,DengXian_MSFontService,sans-serif" font-weight="400" font-size="83" transform="matrix(1 0 0 1 3639.07 1594)">交互</text><path d="M1214 721.094C1236.7 619.991 1286.84 541.429 1385.17 550 1474.81 527.923 1527.12 572.075 1570.03 550 1612.94 527.925 1689.92 550.913 1720.65 550 1751.38 549.087 1839.54 561.34 1871.28 550 1903.02 538.66 2007.59 550.613 2069.83 550 2166.56 571.362 2234.91 648.766 2241 721.094 2252 788.178 2237.52 833.954 2241 892.448 2244.48 950.942 2225.69 1052.67 2241 1101.42 2256.31 1150.17 2222.63 1234.96 2241 1297.85 2259.37 1360.73 2218.44 1434.03 2241 1506.82 2263.56 1579.6 2235.85 1662.35 2241 1715.79 2246.15 1769.22 2218.38 1902.97 2241 1974.91 2231.66 2078.11 2162.72 2154.92 2069.83 2146 2023.08 2151.59 1953.18 2129.99 1905.51 2146 1857.84 2162.01 1820.84 2128.24 1748.04 2146 1675.24 2163.76 1610.73 2133.16 1563.18 2146 1515.63 2158.84 1450.59 2128.79 1385.17 2146 1295.21 2133.3 1207.04 2076.63 1214 1974.91 1204.71 1900.22 1235.59 1849.24 1214 1765.94 1192.41 1682.63 1230.08 1648.39 1214 1582.05 1197.92 1515.7 1232.86 1471.43 1214 1373.08 1195.14 1274.73 1222.82 1253.29 1214 1189.18 1205.18 1125.08 1234.64 1033.69 1214 967.677 1193.36 901.661 1236.6 777.813 1214 721.094Z" stroke="#000000" stroke-width="13.75" stroke-linejoin="round" stroke-miterlimit="10" fill="none" fill-rule="evenodd"/><path d="M3167 750.016C3171.78 648.651 3244.74 561.538 3348 569 3412.14 546.612 3453.57 587.317 3543.48 569 3633.39 550.683 3636.74 579.501 3702.76 569 3768.78 558.499 3809.64 570.412 3862.04 569 3914.44 567.588 4025.96 569.104 4072 569 4172.83 577.417 4245.3 678.073 4253 750.016 4260.54 822.133 4238.15 854.2 4253 897.4 4267.85 940.6 4239.38 1000.74 4253 1070.79 4266.62 1140.85 4248.7 1157.92 4253 1235.52 4257.3 1313.12 4249.59 1351.93 4253 1408.91 4256.41 1465.89 4233.4 1568.02 4253 1616.98 4234.89 1711.93 4162.46 1809.64 4072 1798 3995.87 1805.62 3980.53 1788 3912.72 1798 3844.9 1808 3793.91 1789.5 3731.72 1798 3669.53 1806.5 3601.33 1795.04 3565.2 1798 3529.08 1800.96 3395.58 1792.82 3348 1798 3256.02 1826.72 3188.53 1737.42 3167 1616.98 3160.7 1585.08 3184.31 1512.51 3167 1469.6 3149.69 1426.69 3169.99 1340.73 3167 1287.54 3164.01 1234.34 3181.7 1189.04 3167 1131.48 3152.3 1073.93 3187 1022.01 3167 958.088 3147 894.164 3168.1 797.622 3167 750.016Z" stroke="#000000" stroke-width="13.75" stroke-linejoin="round" stroke-miterlimit="10" fill="none" fill-rule="evenodd"/><path d="M3254 2293.83C3256.28 2254.05 3282.76 2216.42 3324.72 2223 3379.47 2218.1 3452.57 2232.6 3526.67 2223 3600.78 2213.4 3653.99 2228.14 3700.04 2223 3746.1 2217.86 3827 2238.44 3896.28 2223 3923.72 2223.72 3967.32 2260.09 3967 2293.83 3967.55 2341.68 3964.85 2399.89 3967 2429.83 3969.15 2459.78 3960.05 2511.42 3967 2577.17 3971.14 2617.32 3936.32 2648.15 3896.28 2648 3830.41 2665.81 3788.47 2637.31 3722.91 2648 3657.34 2658.69 3583.46 2632.68 3532.39 2648 3481.32 2663.32 3385.58 2646.05 3324.72 2648 3281.04 2652.32 3252.34 2625.32 3254 2577.17 3247.44 2531.56 3266.58 2506.54 3254 2438.33 3241.42 2370.12 3264.55 2349.85 3254 2293.83Z" stroke="#000000" stroke-width="13.75" stroke-linejoin="round" stroke-miterlimit="10" fill="none" fill-rule="evenodd"/><text font-family="DengXian,DengXian_MSFontService,sans-serif" font-weight="400" font-size="64" transform="matrix(1 0 0 1 3321.7 2380)">简易守护程序，实现</text><text font-family="DengXian,DengXian_MSFontService,sans-serif" font-weight="400" font-size="64" transform="matrix(1 0 0 1 3321.7 2457)">守护进程与日志记录</text><text font-family="DengXian,DengXian_MSFontService,sans-serif" font-weight="400" font-size="64" transform="matrix(1 0 0 1 3385.87 2534)">（技术栈待定）</text><path d="M2456.5 2438C2474.19 2391.4 2502.62 2344.92 2522.09 2313.5 2522.42 2343.69 2522.29 2366.88 2522.09 2389.14 2581.05 2382.01 2647.35 2392.91 2719.75 2389.14 2792.14 2385.37 2828.98 2399.22 2936.33 2389.14 3043.68 2379.06 3056.02 2389.93 3152.91 2389.14 3152.6 2353.23 3151.93 2337.19 3152.91 2313.5 3177.98 2348.59 3200.26 2404.01 3218.5 2438 3206.48 2473.28 3179.02 2517.04 3152.91 2562.5 3153.61 2540.28 3156.69 2519.71 3152.91 2486.86 3047.07 2478.41 3004.61 2478.3 2930.02 2486.86 2855.43 2495.42 2776.35 2497.61 2707.13 2486.86 2637.91 2476.11 2586.87 2482.34 2522.09 2486.86 2521.32 2518.94 2525.2 2525.83 2522.09 2562.5 2499.71 2514.64 2477.13 2466.97 2456.5 2438Z" stroke="#000000" stroke-width="6.875" stroke-linejoin="round" stroke-miterlimit="10" fill="none" fill-rule="evenodd"/><text font-family="Calibri,Calibri_MSFontService,sans-serif" font-weight="400" font-size="64" transform="matrix(1 0 0 1 2590.57 2459)">Electron</text><text font-family="DengXian,DengXian_MSFontService,sans-serif" font-weight="400" font-size="64" transform="matrix(1 0 0 1 2806.67 2459)">的</text><text font-family="Calibri,Calibri_MSFontService,sans-serif" font-weight="400" font-size="64" transform="matrix(1 0 0 1 2870.84 2459)">IPC</text><text font-family="DengXian,DengXian_MSFontService,sans-serif" font-weight="400" font-size="64" transform="matrix(1 0 0 1 2954.49 2459)">通信</text><path d="M3653.5 1835.5C3681.5 1846.48 3740.94 1859.27 3767.71 1871.58 3794.48 1883.88 3835.71 1897.93 3896.5 1912.26 3869.01 1906.48 3813.16 1912.52 3775 1912.26 3767.4 1966.37 3766.6 2017.49 3775 2109.74 3817.48 2110.52 3837.53 2105.78 3896.5 2109.74 3856.65 2116.61 3825.94 2134.43 3775 2148.12 3724.06 2161.81 3682.67 2178.73 3653.5 2186.5 3603.84 2166.1 3573.48 2155.32 3532 2148.12 3490.52 2140.91 3442.3 2113.27 3410.5 2109.74 3451.91 2109.96 3494.7 2103.86 3532 2109.74 3525.78 2031.4 3530.42 1973.06 3532 1912.26 3478.99 1907.72 3457.14 1915.77 3410.5 1912.26 3454.16 1898.99 3504.53 1880.51 3534.43 1873.11 3564.33 1865.72 3592.54 1848.55 3653.5 1835.5Z" stroke="#000000" stroke-width="6.875" stroke-linejoin="round" stroke-miterlimit="10" fill="none" fill-rule="evenodd"/><text font-family="DengXian,DengXian_MSFontService,sans-serif" font-weight="400" font-size="48" transform="matrix(1 0 0 1 3557.09 1969)">进程守护</text><text font-family="DengXian,DengXian_MSFontService,sans-serif" font-weight="400" font-size="48" transform="matrix(1 0 0 1 3629.27 2027)">与</text><text font-family="DengXian,DengXian_MSFontService,sans-serif" font-weight="400" font-size="48" transform="matrix(1 0 0 1 3557.09 2084)">日志记录</text><path d="M1455 2316.5C1464.24 2280.39 1478.22 2247.33 1515.42 2256 1589.16 2233.61 1647.33 2257.79 1743.34 2256 1839.36 2254.21 1882.5 2262.24 1929.06 2256 1975.62 2249.76 2041.46 2264.47 2114.77 2256 2188.09 2247.53 2241.79 2257.73 2359.58 2256 2393.69 2263.22 2419.21 2285.97 2420 2316.5 2424.05 2358.18 2409.98 2392.08 2420 2430.24 2430.02 2468.4 2413.41 2515.33 2420 2558.5 2427.72 2589.48 2385.79 2613.17 2359.58 2619 2252.23 2634.88 2187.19 2614.49 2140.1 2619 2093.01 2623.51 2002.43 2606.74 1954.38 2619 1906.34 2631.26 1777.55 2617.65 1726.46 2619 1675.37 2620.35 1620.66 2613.8 1515.42 2619 1484.01 2617.53 1451.97 2592.03 1455 2558.5 1453.24 2516.58 1466.63 2484.63 1455 2439.92 1443.37 2395.21 1469.5 2365.39 1455 2316.5Z" stroke="#000000" stroke-width="13.75" stroke-linejoin="round" stroke-miterlimit="10" fill="none" fill-rule="evenodd"/><text font-family="DengXian,DengXian_MSFontService,sans-serif" font-weight="400" font-size="83" transform="matrix(1 0 0 1 1580.6 2416)">使用</text><text font-family="Calibri,Calibri_MSFontService,sans-serif" font-weight="400" font-size="83" transform="matrix(1 0 0 1 1745.6 2416)">electron</text><text font-family="DengXian,DengXian_MSFontService,sans-serif" font-weight="400" font-size="37" transform="matrix(1 0 0 1 2034.17 2416)">(</text><text font-family="DengXian,DengXian_MSFontService,sans-serif" font-weight="400" font-size="37" transform="matrix(1 0 0 1 2045.05 2416)">暂定</text><text font-family="DengXian,DengXian_MSFontService,sans-serif" font-weight="400" font-size="37" transform="matrix(1 0 0 1 2118.38 2416)">)</text><text font-family="DengXian,DengXian_MSFontService,sans-serif" font-weight="400" font-size="83" transform="matrix(1 0 0 1 2129.27 2416)">打包</text><text font-family="Calibri,Calibri_MSFontService,sans-serif" font-weight="400" font-size="83" transform="matrix(1 0 0 1 1535.54 2515)">vue3</text><text font-family="DengXian,DengXian_MSFontService,sans-serif" font-weight="400" font-size="83" transform="matrix(1 0 0 1 1699.4 2515)">编写的守护程序</text><text font-family="Calibri,Calibri_MSFontService,sans-serif" font-weight="400" font-size="83" transform="matrix(1 0 0 1 2276.9 2515)">ui</text><path d="M2328.5 1239C2353.14 1208.19 2372.47 1187.94 2409.88 1157.5 2409.13 1175.42 2411.05 1188.86 2409.88 1198.25 2484.7 1199.89 2560.86 1191.13 2617.63 1198.25 2674.39 1205.37 2774.07 1187.26 2852.47 1198.25 2930.87 1209.24 2994.3 1195.37 3087.31 1198.25 3180.32 1201.13 3234.2 1207.78 3313.12 1198.25 3312.34 1183.07 3312.34 1170.58 3313.12 1157.5 3352 1199.55 3373.84 1211.2 3394.5 1239 3361.43 1272.05 3350.7 1278.07 3313.12 1320.5 3312.67 1307.3 3314.77 1298.34 3313.12 1279.75 3227.01 1272.71 3174.01 1283.41 3105.37 1279.75 3036.73 1276.09 2922.92 1276.02 2870.53 1279.75 2818.15 1283.48 2720.36 1289.52 2662.79 1279.75 2605.22 1269.98 2485.85 1267.71 2409.88 1279.75 2410.73 1294.59 2411.05 1303 2409.88 1320.5 2388.7 1302.85 2360.99 1271.59 2328.5 1239Z" stroke="#000000" stroke-width="6.875" stroke-linejoin="round" stroke-miterlimit="10" fill="none" fill-rule="evenodd"/><text font-family="DengXian,DengXian_MSFontService,sans-serif" font-weight="400" font-size="48" transform="matrix(1 0 0 1 2520.29 1255)">均通过</text><text font-family="Calibri,Calibri_MSFontService,sans-serif" font-weight="400" font-size="48" transform="matrix(1 0 0 1 2664.66 1255)">http </text><text font-family="Calibri,Calibri_MSFontService,sans-serif" font-weight="400" font-size="48" transform="matrix(1 0 0 1 2758.05 1255)">api</text><text font-family="DengXian,DengXian_MSFontService,sans-serif" font-weight="400" font-size="48" transform="matrix(1 0 0 1 2817.06 1255)">请求进行数据交互</text><path d="M4008.47 1730.56C4036.42 1724.56 4076.29 1712.62 4142.15 1706.95 4134.21 1717.48 4126.04 1728.92 4114.63 1746.27 4149.11 1770.79 4211.03 1809.33 4250.73 1841.52 4290.44 1873.71 4353.03 1914.62 4399.87 1945.89 4446.7 1977.16 4513.18 2016.07 4549 2050.25 4555.46 2040.09 4569.17 2022.34 4576.52 2010.93 4591.79 2063.13 4598.05 2099.58 4600.13 2144.61 4573.99 2154.37 4519.95 2163.17 4466.44 2168.22 4475.56 2153.54 4485.47 2144.85 4493.96 2128.9 4441.77 2103.16 4407.03 2057.48 4340.48 2021.49 4273.94 1985.51 4238.27 1957.29 4187.01 1914.09 4135.75 1870.88 4106.55 1852.58 4059.6 1824.92 4044.86 1842.45 4039.65 1854.74 4032.08 1864.24 4024.49 1824.75 4015.41 1768.48 4008.47 1730.56Z" stroke="#000000" stroke-width="6.875" stroke-linejoin="round" stroke-miterlimit="10" fill="none" fill-rule="evenodd"/><text font-family="Calibri,Calibri_MSFontService,sans-serif" font-weight="400" font-size="48" transform="matrix(0.819301 0.573363 -0.573363 0.819301 4115.97 1825)">Python C </text><text font-family="Calibri,Calibri_MSFontService,sans-serif" font-weight="400" font-size="48" transform="matrix(0.819301 0.573363 -0.573363 0.819301 4268.06 1932)">api</text><text font-family="DengXian,DengXian_MSFontService,sans-serif" font-weight="400" font-size="48" transform="matrix(0.819301 0.573363 -0.573363 0.819301 4316.4 1966)">（暂定）</text><path d="M5878 1254.67C5880.28 1214.97 5906.76 1177.43 5948.72 1184 6003.47 1179.11 6076.57 1193.58 6150.67 1184 6224.78 1174.42 6277.99 1189.13 6324.04 1184 6370.1 1178.87 6451 1199.4 6520.28 1184 6547.72 1184.72 6591.32 1221.01 6591 1254.67 6591.55 1302.4 6588.85 1360.47 6591 1390.35 6593.15 1420.22 6584.05 1471.74 6591 1537.33 6595.14 1577.39 6560.32 1608.15 6520.28 1608 6454.41 1625.76 6412.47 1597.34 6346.91 1608 6281.34 1618.66 6207.46 1592.72 6156.39 1608 6105.32 1623.28 6009.58 1606.06 5948.72 1608 5905.04 1612.31 5876.34 1585.37 5878 1537.33 5871.44 1491.83 5890.58 1466.88 5878 1398.83 5865.42 1330.78 5888.55 1310.55 5878 1254.67Z" stroke="#000000" stroke-width="13.75" stroke-linejoin="round" stroke-miterlimit="10" fill="none" fill-rule="evenodd"/><text font-family="DengXian,DengXian_MSFontService,sans-serif" font-weight="400" font-size="64" transform="matrix(1 0 0 1 6106.05 1417)">相关数据</text><path d="M4125.5 1380C4150.16 1349.19 4169.49 1328.94 4206.94 1298.5 4206.18 1316.42 4208.11 1329.86 4206.94 1339.25 4257.51 1332.29 4347.93 1333.83 4396.28 1339.25 4444.63 1344.67 4526.63 1330 4631.85 1339.25 4737.06 1348.5 4769.44 1345.73 4867.42 1339.25 4965.4 1332.77 5010.12 1349.85 5102.99 1339.25 5195.86 1328.65 5232.7 1346.96 5307.74 1339.25 5382.78 1331.54 5486.38 1328.01 5543.31 1339.25 5600.25 1350.49 5661.74 1345.28 5748.06 1339.25 5747.86 1328.51 5748.48 1315.33 5748.06 1298.5 5787.99 1330.47 5813.35 1357.7 5829.5 1380 5796.14 1416.59 5770.18 1434.58 5748.06 1461.5 5748.02 1441.68 5747.5 1440.17 5748.06 1420.75 5638.11 1431.48 5577.29 1428.52 5497.08 1420.75 5416.87 1412.98 5382.29 1423.59 5323.15 1420.75 5264.02 1417.91 5201.12 1421.82 5149.23 1420.75 5097.33 1419.68 4984.34 1420.17 4929.06 1420.75 4873.79 1421.33 4767.76 1425.69 4708.9 1420.75 4650.04 1415.81 4559.01 1415.98 4488.74 1420.75 4418.47 1425.52 4281.68 1425.21 4206.94 1420.75 4206.45 1431.31 4207.37 1448.29 4206.94 1461.5 4171.27 1433.7 4151.39 1412.63 4125.5 1380Z" stroke="#000000" stroke-width="6.875" stroke-linejoin="round" stroke-miterlimit="10" fill="none" fill-rule="evenodd"/><text font-family="Calibri,Calibri_MSFontService,sans-serif" font-weight="400" font-size="48" transform="matrix(1 0 0 1 4641.04 1396)">Cpp</text><text font-family="DengXian,DengXian_MSFontService,sans-serif" font-weight="400" font-size="48" transform="matrix(1 0 0 1 4717.24 1396)">进行</text><text font-family="Calibri,Calibri_MSFontService,sans-serif" font-weight="400" font-size="48" transform="matrix(1 0 0 1 4813.49 1396)">io</text><text font-family="DengXian,DengXian_MSFontService,sans-serif" font-weight="400" font-size="48" transform="matrix(1 0 0 1 4849.58 1396)">操作（或使用</text><text font-family="Calibri,Calibri_MSFontService,sans-serif" font-weight="400" font-size="48" transform="matrix(1 0 0 1 5138.33 1396)">SQLite</text><text font-family="DengXian,DengXian_MSFontService,sans-serif" font-weight="400" font-size="48" transform="matrix(1 0 0 1 5264.37 1396)">）</text><path d="M4110.5 1160C4137.18 1135.43 4157.63 1115.16 4191.88 1078.5 4191.12 1096.42 4193.05 1109.86 4191.88 1119.25 4268.16 1121.14 4305.96 1116.88 4370.55 1119.25 4435.15 1121.62 4502.07 1111.59 4566.34 1119.25 4630.61 1126.91 4674.61 1124.53 4762.12 1119.25 4762.55 1109.36 4762.58 1086.96 4762.12 1078.5 4791.83 1116.07 4804.14 1120.32 4843.5 1160 4814.3 1196.36 4801.11 1206.62 4762.12 1241.5 4763.55 1227.11 4762.22 1211.5 4762.12 1200.75 4693.97 1209.67 4657.83 1206.44 4560.64 1200.75 4463.44 1195.06 4428.18 1202.35 4359.15 1200.75 4290.12 1199.16 4238.49 1204.52 4191.88 1200.75 4190.27 1215.63 4192.66 1223.04 4191.88 1241.5 4167.57 1215.7 4147.28 1188.73 4110.5 1160Z" stroke="#000000" stroke-width="6.875" stroke-linejoin="round" stroke-miterlimit="10" fill="none" fill-rule="evenodd"/><text font-family="DengXian,DengXian_MSFontService,sans-serif" font-weight="400" font-size="48" transform="matrix(1 0 0 1 4254.66 1176)">与大模型</text><text font-family="Calibri,Calibri_MSFontService,sans-serif" font-weight="400" font-size="48" transform="matrix(1 0 0 1 4447.16 1176)">api</text><text font-family="DengXian,DengXian_MSFontService,sans-serif" font-weight="400" font-size="48" transform="matrix(1 0 0 1 4506.17 1176)">进行交互</text><path d="M4579 2266.83C4581.28 2227.05 4607.76 2189.42 4649.72 2196 4704.47 2191.1 4777.57 2205.6 4851.67 2196 4925.78 2186.4 4978.99 2201.14 5025.04 2196 5071.1 2190.86 5152 2211.44 5221.28 2196 5248.72 2196.72 5292.32 2233.09 5292 2266.83 5292.55 2314.68 5289.85 2372.89 5292 2402.83 5294.15 2432.78 5285.05 2484.42 5292 2550.17 5296.14 2590.32 5261.32 2621.15 5221.28 2621 5155.41 2638.81 5113.47 2610.31 5047.91 2621 4982.34 2631.69 4908.46 2605.68 4857.39 2621 4806.32 2636.32 4710.58 2619.05 4649.72 2621 4606.04 2625.32 4577.34 2598.32 4579 2550.17 4572.44 2504.56 4591.58 2479.54 4579 2411.33 4566.42 2343.12 4589.55 2322.85 4579 2266.83Z" stroke="#000000" stroke-width="13.75" stroke-linejoin="round" stroke-miterlimit="10" fill="none" fill-rule="evenodd"/><text font-family="DengXian,DengXian_MSFontService,sans-serif" font-weight="400" font-size="64" transform="matrix(1 0 0 1 4646.1 2392)">Python</text><text font-family="DengXian,DengXian_MSFontService,sans-serif" font-weight="400" font-size="64" transform="matrix(1 0 0 1 4839.75 2392)">脚本实现医疗</text><text font-family="DengXian,DengXian_MSFontService,sans-serif" font-weight="400" font-size="64" transform="matrix(1 0 0 1 4646.68 2469)">行业专用数据的处理</text><path d="M4878 1030.83C4885 1000.72 4900.19 978.662 4928.89 980 4972.46 978.28 5055.68 999.321 5104.93 980 5154.18 960.679 5193.01 987.123 5256.05 980 5319.1 972.877 5367.39 989.414 5427.11 980 5448.44 980.419 5478.12 1004.72 5478 1030.83 5483.88 1105.22 5457.42 1175.68 5478 1234.17 5479.42 1268.99 5461.92 1281.94 5427.11 1285 5362.93 1286.82 5320.99 1279.88 5275.98 1285 5230.98 1290.12 5161.84 1271.67 5109.91 1285 5057.99 1298.33 4973.62 1281.61 4928.89 1285 4896.84 1283.91 4876.07 1264.61 4878 1234.17 4865.87 1162.05 4890.55 1094.75 4878 1030.83Z" stroke="#000000" stroke-width="13.75" stroke-linejoin="round" stroke-miterlimit="10" fill="none" fill-rule="evenodd"/><text font-family="DengXian,DengXian_MSFontService,sans-serif" font-weight="400" font-size="64" transform="matrix(1 0 0 1 5035.74 1116)">大模型</text><text font-family="DengXian,DengXian_MSFontService,sans-serif" font-weight="400" font-size="64" transform="matrix(1 0 0 1 5228.24 1116)">Api</text><text font-family="DengXian,DengXian_MSFontService,sans-serif" font-weight="400" font-size="64" transform="matrix(1 0 0 1 4953.24 1193)">（本地或在线）</text></g></svg>